<mxfile host="app.diagrams.net" modified="2023-10-07T21:01:31.009Z" agent="Mozilla/5.0 (Windows NT 10.0; Win64; x64) AppleWebKit/537.36 (KHTML, like Gecko) Chrome/117.0.0.0 Safari/537.36" etag="eVbASNAW-Az4PAvxsLXn" version="22.0.4" type="google" pages="2">
  <diagram name="Página-1" id="wjUvf0A3CTY94YcH-Syn">
    <mxGraphModel dx="880" dy="438" grid="1" gridSize="10" guides="1" tooltips="1" connect="1" arrows="1" fold="1" page="1" pageScale="1" pageWidth="827" pageHeight="1169" math="0" shadow="0">
      <root>
        <mxCell id="0" />
        <mxCell id="1" parent="0" />
        <mxCell id="jWuhSC7JsFtc3z_KNqRu-1" value="UC06 - Visualizar Catalogo" style="shape=umlFrame;whiteSpace=wrap;html=1;pointerEvents=0;recursiveResize=0;container=1;collapsible=0;width=160;" vertex="1" parent="1">
          <mxGeometry x="30" y="20" width="760" height="430" as="geometry" />
        </mxCell>
        <mxCell id="0gz1BFJOF9PNopsFkwfc-1" style="edgeStyle=orthogonalEdgeStyle;rounded=0;orthogonalLoop=1;jettySize=auto;html=1;exitX=1;exitY=1;exitDx=0;exitDy=0;entryX=0;entryY=0.5;entryDx=0;entryDy=0;" edge="1" parent="jWuhSC7JsFtc3z_KNqRu-1" source="jWuhSC7JsFtc3z_KNqRu-2" target="jWuhSC7JsFtc3z_KNqRu-5">
          <mxGeometry relative="1" as="geometry" />
        </mxCell>
        <mxCell id="jWuhSC7JsFtc3z_KNqRu-2" value="" style="ellipse;fillColor=strokeColor;html=1;" vertex="1" parent="jWuhSC7JsFtc3z_KNqRu-1">
          <mxGeometry x="50" y="80" width="30" height="30" as="geometry" />
        </mxCell>
        <mxCell id="jWuhSC7JsFtc3z_KNqRu-3" value="" style="ellipse;html=1;shape=endState;fillColor=strokeColor;" vertex="1" parent="jWuhSC7JsFtc3z_KNqRu-1">
          <mxGeometry x="660" y="140" width="30" height="30" as="geometry" />
        </mxCell>
        <mxCell id="jWuhSC7JsFtc3z_KNqRu-5" value="" style="rounded=1;whiteSpace=wrap;html=1;" vertex="1" parent="jWuhSC7JsFtc3z_KNqRu-1">
          <mxGeometry x="115" y="120" width="135" height="70" as="geometry" />
        </mxCell>
        <mxCell id="jWuhSC7JsFtc3z_KNqRu-6" value="" style="endArrow=none;html=1;rounded=0;entryX=0.992;entryY=0.329;entryDx=0;entryDy=0;entryPerimeter=0;exitX=0.01;exitY=0.329;exitDx=0;exitDy=0;exitPerimeter=0;" edge="1" parent="jWuhSC7JsFtc3z_KNqRu-1">
          <mxGeometry width="50" height="50" relative="1" as="geometry">
            <mxPoint x="117.16000000000008" y="149.995" as="sourcePoint" />
            <mxPoint x="235" y="149.995" as="targetPoint" />
          </mxGeometry>
        </mxCell>
        <mxCell id="jWuhSC7JsFtc3z_KNqRu-7" value="&lt;span style=&quot;font-size: 10px;&quot;&gt;&lt;b&gt;Visualizando Catalogo&lt;br&gt;&lt;/b&gt;&lt;/span&gt;" style="text;html=1;align=center;verticalAlign=middle;resizable=0;points=[];autosize=1;strokeColor=none;fillColor=none;" vertex="1" parent="jWuhSC7JsFtc3z_KNqRu-1">
          <mxGeometry x="117.5" y="120" width="130" height="30" as="geometry" />
        </mxCell>
        <mxCell id="jWuhSC7JsFtc3z_KNqRu-16" style="edgeStyle=orthogonalEdgeStyle;rounded=0;orthogonalLoop=1;jettySize=auto;html=1;exitX=0.5;exitY=1;exitDx=0;exitDy=0;entryX=0.5;entryY=0;entryDx=0;entryDy=0;" edge="1" parent="jWuhSC7JsFtc3z_KNqRu-1" source="jWuhSC7JsFtc3z_KNqRu-9" target="0gz1BFJOF9PNopsFkwfc-8">
          <mxGeometry relative="1" as="geometry" />
        </mxCell>
        <mxCell id="jWuhSC7JsFtc3z_KNqRu-9" value="" style="rounded=1;whiteSpace=wrap;html=1;" vertex="1" parent="jWuhSC7JsFtc3z_KNqRu-1">
          <mxGeometry x="410" y="120" width="115" height="65" as="geometry" />
        </mxCell>
        <mxCell id="jWuhSC7JsFtc3z_KNqRu-10" value="" style="endArrow=none;html=1;rounded=0;entryX=0.992;entryY=0.329;entryDx=0;entryDy=0;entryPerimeter=0;exitX=0.01;exitY=0.329;exitDx=0;exitDy=0;exitPerimeter=0;" edge="1" parent="jWuhSC7JsFtc3z_KNqRu-1">
          <mxGeometry width="50" height="50" relative="1" as="geometry">
            <mxPoint x="407.1600000000001" y="149.995" as="sourcePoint" />
            <mxPoint x="525" y="149.995" as="targetPoint" />
          </mxGeometry>
        </mxCell>
        <mxCell id="jWuhSC7JsFtc3z_KNqRu-22" style="edgeStyle=orthogonalEdgeStyle;rounded=0;orthogonalLoop=1;jettySize=auto;html=1;entryX=0;entryY=0.5;entryDx=0;entryDy=0;" edge="1" parent="jWuhSC7JsFtc3z_KNqRu-1" source="jWuhSC7JsFtc3z_KNqRu-11" target="jWuhSC7JsFtc3z_KNqRu-3">
          <mxGeometry relative="1" as="geometry" />
        </mxCell>
        <mxCell id="jWuhSC7JsFtc3z_KNqRu-11" value="&lt;span style=&quot;font-size: 10px;&quot;&gt;&lt;b&gt;Produto Visualizado&lt;br&gt;&lt;/b&gt;&lt;/span&gt;" style="text;html=1;align=center;verticalAlign=middle;resizable=0;points=[];autosize=1;strokeColor=none;fillColor=none;" vertex="1" parent="jWuhSC7JsFtc3z_KNqRu-1">
          <mxGeometry x="405" y="120" width="120" height="30" as="geometry" />
        </mxCell>
        <mxCell id="jWuhSC7JsFtc3z_KNqRu-12" value="" style="endArrow=none;html=1;rounded=0;entryX=0.992;entryY=0.329;entryDx=0;entryDy=0;entryPerimeter=0;exitX=0.01;exitY=0.329;exitDx=0;exitDy=0;exitPerimeter=0;" edge="1" parent="jWuhSC7JsFtc3z_KNqRu-1">
          <mxGeometry width="50" height="50" relative="1" as="geometry">
            <mxPoint x="407.1600000000001" y="149.995" as="sourcePoint" />
            <mxPoint x="525" y="149.995" as="targetPoint" />
          </mxGeometry>
        </mxCell>
        <mxCell id="jWuhSC7JsFtc3z_KNqRu-13" value="-do/VisualizarCatalogo()&lt;br&gt;(classe catalogo)" style="text;html=1;align=center;verticalAlign=middle;resizable=0;points=[];autosize=1;strokeColor=none;fillColor=none;" vertex="1" parent="jWuhSC7JsFtc3z_KNqRu-1">
          <mxGeometry x="107.5" y="150" width="150" height="40" as="geometry" />
        </mxCell>
        <mxCell id="0gz1BFJOF9PNopsFkwfc-2" value="" style="endArrow=classic;html=1;rounded=0;entryX=-0.009;entryY=0.615;entryDx=0;entryDy=0;entryPerimeter=0;" edge="1" parent="jWuhSC7JsFtc3z_KNqRu-1" target="jWuhSC7JsFtc3z_KNqRu-9">
          <mxGeometry width="50" height="50" relative="1" as="geometry">
            <mxPoint x="250" y="160" as="sourcePoint" />
            <mxPoint x="300" y="110" as="targetPoint" />
          </mxGeometry>
        </mxCell>
        <mxCell id="0gz1BFJOF9PNopsFkwfc-8" value="" style="rhombus;whiteSpace=wrap;html=1;" vertex="1" parent="jWuhSC7JsFtc3z_KNqRu-1">
          <mxGeometry x="445" y="230" width="40" height="35" as="geometry" />
        </mxCell>
        <mxCell id="0gz1BFJOF9PNopsFkwfc-9" value="Visualizando Produtos" style="text;html=1;strokeColor=none;fillColor=none;align=center;verticalAlign=middle;whiteSpace=wrap;rounded=0;" vertex="1" parent="jWuhSC7JsFtc3z_KNqRu-1">
          <mxGeometry x="260" y="120" width="130" height="30" as="geometry" />
        </mxCell>
        <mxCell id="jWuhSC7JsFtc3z_KNqRu-17" value="" style="rounded=1;whiteSpace=wrap;html=1;" vertex="1" parent="jWuhSC7JsFtc3z_KNqRu-1">
          <mxGeometry x="415" y="300" width="115" height="65" as="geometry" />
        </mxCell>
        <mxCell id="jWuhSC7JsFtc3z_KNqRu-18" value="" style="endArrow=none;html=1;rounded=0;entryX=0.992;entryY=0.329;entryDx=0;entryDy=0;entryPerimeter=0;exitX=0.01;exitY=0.329;exitDx=0;exitDy=0;exitPerimeter=0;" edge="1" parent="jWuhSC7JsFtc3z_KNqRu-1">
          <mxGeometry width="50" height="50" relative="1" as="geometry">
            <mxPoint x="412.1600000000001" y="329.995" as="sourcePoint" />
            <mxPoint x="530" y="329.995" as="targetPoint" />
          </mxGeometry>
        </mxCell>
        <mxCell id="jWuhSC7JsFtc3z_KNqRu-19" value="&lt;span style=&quot;font-size: 10px;&quot;&gt;&lt;b&gt;Produto Indisponivel&lt;br&gt;&lt;/b&gt;&lt;/span&gt;" style="text;html=1;align=center;verticalAlign=middle;resizable=0;points=[];autosize=1;strokeColor=none;fillColor=none;" vertex="1" parent="jWuhSC7JsFtc3z_KNqRu-1">
          <mxGeometry x="410" y="300" width="120" height="30" as="geometry" />
        </mxCell>
        <mxCell id="jWuhSC7JsFtc3z_KNqRu-20" value="" style="endArrow=none;html=1;rounded=0;entryX=0.992;entryY=0.329;entryDx=0;entryDy=0;entryPerimeter=0;exitX=0.01;exitY=0.329;exitDx=0;exitDy=0;exitPerimeter=0;" edge="1" parent="jWuhSC7JsFtc3z_KNqRu-1">
          <mxGeometry width="50" height="50" relative="1" as="geometry">
            <mxPoint x="412.1600000000001" y="329.995" as="sourcePoint" />
            <mxPoint x="530" y="329.995" as="targetPoint" />
          </mxGeometry>
        </mxCell>
        <mxCell id="jWuhSC7JsFtc3z_KNqRu-21" style="edgeStyle=orthogonalEdgeStyle;rounded=0;orthogonalLoop=1;jettySize=auto;html=1;entryX=0.475;entryY=-0.067;entryDx=0;entryDy=0;entryPerimeter=0;" edge="1" parent="jWuhSC7JsFtc3z_KNqRu-1" source="0gz1BFJOF9PNopsFkwfc-8" target="jWuhSC7JsFtc3z_KNqRu-19">
          <mxGeometry relative="1" as="geometry" />
        </mxCell>
      </root>
    </mxGraphModel>
  </diagram>
  <diagram id="_vpCgScS8IZu_fbCTkJB" name="Página-2">
    <mxGraphModel grid="1" page="1" gridSize="10" guides="1" tooltips="1" connect="1" arrows="1" fold="1" pageScale="1" pageWidth="827" pageHeight="1169" math="0" shadow="0">
      <root>
        <mxCell id="0" />
        <mxCell id="1" parent="0" />
      </root>
    </mxGraphModel>
  </diagram>
</mxfile>
